<svg xmlns="http://www.w3.org/2000/svg" viewBox="0 0 101 101" shape-rendering="crispEdges"><path fill="#ffffff" d="M0 0h101v101H0z"/><path stroke="#000000" d="M4 4.5h7m1 0h1m5 0h4m2 0h1m4 0h2m2 0h1m1 0h1m1 0h1m2 0h2m2 0h3m3 0h2m1 0h1m1 0h4m2 0h5m2 0h1m4 0h2m1 0h1m1 0h2m1 0h2m1 0h1m2 0h1m2 0h7M4 5.5h1m5 0h1m1 0h1m2 0h2m1 0h4m1 0h3m4 0h4m2 0h1m2 0h1m2 0h2m1 0h1m1 0h1m1 0h1m4 0h2m2 0h2m1 0h3m2 0h2m1 0h2m1 0h5m1 0h4m1 0h1m3 0h2m1 0h1m5 0h1M4 6.5h1m1 0h3m1 0h1m2 0h2m1 0h1m1 0h2m2 0h2m1 0h1m4 0h2m1 0h2m1 0h4m2 0h3m2 0h5m2 0h5m1 0h2m4 0h1m1 0h5m1 0h1m1 0h2m2 0h6m2 0h1m1 0h1m1 0h3m1 0h1M4 7.5h1m1 0h3m1 0h1m3 0h2m1 0h1m1 0h3m5 0h1m3 0h3m2 0h2m2 0h3m2 0h1m2 0h1m1 0h1m1 0h2m1 0h1m1 0h1m2 0h1m2 0h1m2 0h5m1 0h2m2 0h1m2 0h1m1 0h1m1 0h3m1 0h1m2 0h1m1 0h3m1 0h1M4 8.5h1m1 0h3m1 0h1m1 0h1m2 0h2m1 0h1m1 0h2m3 0h4m2 0h7m5 0h1m1 0h1m4 0h3m1 0h2m1 0h2m1 0h9m2 0h3m3 0h1m1 0h1m1 0h3m1 0h3m2 0h1m1 0h3m1 0h1M4 9.5h1m5 0h1m1 0h3m1 0h1m3 0h2m1 0h1m3 0h1m1 0h2m1 0h1m3 0h2m4 0h3m2 0h2m3 0h1m1 0h1m1 0h5m3 0h3m1 0h1m5 0h1m2 0h1m1 0h3m1 0h1m1 0h1m1 0h1m2 0h1m5 0h1M4 10.5h7m1 0h1m1 0h1m1 0h1m1 0h1m1 0h1m1 0h1m1 0h1m1 0h1m1 0h1m1 0h1m1 0h1m1 0h1m1 0h1m1 0h1m1 0h1m1 0h1m1 0h1m1 0h1m1 0h1m1 0h1m1 0h1m1 0h1m1 0h1m1 0h1m1 0h1m1 0h1m1 0h1m1 0h1m1 0h1m1 0h1m1 0h1m1 0h1m1 0h1m1 0h1m1 0h1m1 0h1m1 0h1m1 0h1m1 0h1m1 0h7M12 11.5h1m3 0h3m2 0h3m2 0h4m2 0h1m3 0h1m1 0h2m1 0h1m3 0h1m3 0h1m2 0h2m2 0h1m3 0h1m3 0h2m3 0h2m1 0h1m1 0h1m1 0h1m5 0h1m1 0h1m1 0h3M4 12.5h3m2 0h2m1 0h1m1 0h1m4 0h1m3 0h2m2 0h10m1 0h1m1 0h4m1 0h1m1 0h1m2 0h1m2 0h3m1 0h1m2 0h5m1 0h7m1 0h4m1 0h1m1 0h1m3 0h2m1 0h5m2 0h2M4 13.5h1m6 0h2m1 0h1m1 0h4m5 0h1m2 0h2m1 0h2m1 0h6m3 0h1m2 0h1m1 0h3m1 0h1m1 0h1m1 0h2m1 0h1m1 0h1m3 0h2m4 0h1m1 0h2m4 0h1m1 0h2m1 0h3m2 0h2m1 0h1M4 14.5h1m1 0h2m2 0h5m3 0h1m2 0h1m1 0h1m1 0h1m1 0h5m1 0h1m1 0h1m2 0h2m1 0h2m3 0h3m3 0h1m3 0h1m3 0h2m1 0h1m1 0h5m2 0h1m5 0h1m1 0h2m3 0h4m1 0h1m1 0h1m2 0h2M5 15.5h3m1 0h1m1 0h2m3 0h3m1 0h1m3 0h8m2 0h1m1 0h2m1 0h1m1 0h3m1 0h1m1 0h1m1 0h2m1 0h2m5 0h3m1 0h4m2 0h1m5 0h2m2 0h1m8 0h3m1 0h2M4 16.5h7m1 0h2m2 0h2m1 0h1m3 0h1m1 0h1m1 0h2m2 0h2m2 0h2m1 0h2m1 0h7m1 0h1m2 0h4m2 0h3m3 0h9m1 0h1m2 0h2m1 0h3m3 0h1m1 0h1m2 0h3M7 17.5h2m3 0h1m1 0h3m4 0h2m1 0h1m4 0h2m4 0h2m1 0h3m4 0h3m1 0h1m5 0h3m3 0h2m4 0h1m1 0h2m1 0h2m12 0h2m2 0h2m1 0h1M5 18.5h1m3 0h2m1 0h8m4 0h2m1 0h1m1 0h2m1 0h1m1 0h3m1 0h1m2 0h5m1 0h4m1 0h1m2 0h3m2 0h1m1 0h1m1 0h2m6 0h2m2 0h1m2 0h2m1 0h1m1 0h1m1 0h1m1 0h2m2 0h1m2 0h1M8 19.5h1m2 0h1m3 0h1m2 0h1m2 0h2m1 0h5m1 0h2m1 0h1m2 0h1m3 0h1m2 0h3m3 0h3m2 0h2m4 0h2m1 0h4m1 0h2m3 0h2m2 0h1m1 0h2m1 0h1m1 0h1m1 0h3m6 0h2M5 20.5h1m1 0h5m3 0h3m1 0h5m3 0h1m1 0h3m1 0h1m1 0h10m4 0h1m1 0h2m1 0h2m1 0h2m1 0h2m1 0h1m1 0h3m1 0h3m2 0h1m3 0h4m1 0h1m1 0h1m2 0h2m3 0h1m2 0h1M5 21.5h1m6 0h1m1 0h6m1 0h1m2 0h1m2 0h1m3 0h1m2 0h1m1 0h1m4 0h2m1 0h1m2 0h3m4 0h1m1 0h1m4 0h1m1 0h4m2 0h3m4 0h2m2 0h2m4 0h1m1 0h1m2 0h1m2 0h1m1 0h1M4 22.5h2m3 0h2m3 0h2m4 0h3m1 0h2m1 0h2m4 0h1m1 0h1m1 0h2m1 0h4m3 0h2m5 0h2m1 0h3m1 0h1m1 0h1m1 0h2m2 0h1m3 0h2m3 0h1m3 0h2m2 0h1m5 0h1m2 0h2M7 23.5h3m3 0h1m1 0h6m3 0h1m3 0h1m1 0h1m1 0h1m1 0h7m3 0h3m2 0h1m2 0h1m4 0h1m6 0h1m1 0h3m2 0h5m1 0h1m3 0h1m3 0h4m2 0h1m3 0h2M4 24.5h2m4 0h1m1 0h1m3 0h2m6 0h2m2 0h2m2 0h1m3 0h2m5 0h2m1 0h1m1 0h1m1 0h1m1 0h3m2 0h3m1 0h4m1 0h1m1 0h2m1 0h1m1 0h1m1 0h1m1 0h1m3 0h2m4 0h1m2 0h1m4 0h2M5 25.5h3m1 0h1m3 0h4m5 0h2m1 0h1m2 0h3m1 0h2m2 0h1m5 0h5m4 0h2m1 0h1m1 0h1m2 0h3m8 0h1m3 0h4m1 0h1m4 0h1m1 0h4m1 0h1m2 0h1M4 26.5h2m2 0h4m1 0h4m1 0h2m1 0h1m1 0h1m1 0h1m1 0h1m1 0h1m9 0h2m2 0h1m1 0h2m1 0h4m1 0h2m1 0h2m1 0h1m1 0h1m1 0h5m1 0h1m1 0h3m1 0h1m1 0h2m2 0h1m3 0h1m2 0h4m2 0h2M6 27.5h1m5 0h1m2 0h1m5 0h1m1 0h1m2 0h4m1 0h1m1 0h1m8 0h1m3 0h1m2 0h1m1 0h1m1 0h1m1 0h1m1 0h1m4 0h1m3 0h1m1 0h2m2 0h2m1 0h2m1 0h2m3 0h2m1 0h5m1 0h2m1 0h1M5 28.5h1m1 0h2m1 0h1m3 0h2m2 0h1m1 0h2m3 0h1m3 0h1m3 0h3m2 0h1m5 0h1m1 0h1m2 0h2m4 0h1m2 0h1m1 0h1m1 0h1m1 0h2m1 0h1m2 0h3m1 0h1m4 0h2m1 0h1m2 0h2m2 0h6m1 0h1M8 29.5h1m3 0h3m3 0h1m1 0h3m1 0h1m1 0h1m2 0h3m2 0h3m1 0h2m2 0h3m1 0h2m5 0h2m2 0h1m1 0h2m2 0h3m1 0h3m1 0h2m2 0h1m2 0h4m1 0h2m2 0h1m3 0h2M4 30.5h1m2 0h2m1 0h4m2 0h1m2 0h2m1 0h5m1 0h5m1 0h3m4 0h1m3 0h1m1 0h1m2 0h2m2 0h3m1 0h1m1 0h5m4 0h1m1 0h2m2 0h3m2 0h2m2 0h1m1 0h2m1 0h1m2 0h2m1 0h1M5 31.5h1m9 0h1m1 0h3m1 0h1m4 0h3m1 0h3m2 0h3m4 0h3m1 0h2m7 0h1m2 0h4m2 0h2m1 0h1m1 0h2m1 0h2m1 0h1m2 0h4m1 0h1m2 0h2m4 0h1M4 32.5h3m1 0h5m2 0h2m2 0h2m1 0h2m3 0h2m3 0h5m1 0h3m1 0h3m1 0h2m1 0h5m2 0h1m1 0h7m2 0h1m1 0h3m1 0h1m3 0h2m1 0h1m4 0h1m1 0h10M4 33.5h2m2 0h1m3 0h2m1 0h1m1 0h3m2 0h1m3 0h2m1 0h2m1 0h1m3 0h2m2 0h2m3 0h1m1 0h6m1 0h1m3 0h1m1 0h1m3 0h5m1 0h1m4 0h2m1 0h3m3 0h5m3 0h1m1 0h1m1 0h1M5 34.5h1m1 0h2m1 0h1m1 0h4m1 0h1m2 0h2m2 0h1m3 0h1m1 0h1m1 0h1m1 0h1m1 0h1m3 0h2m1 0h1m4 0h1m2 0h1m1 0h3m1 0h1m2 0h1m1 0h1m1 0h2m1 0h3m1 0h3m5 0h1m1 0h1m1 0h1m2 0h3m1 0h1m1 0h5M6 35.5h3m3 0h3m1 0h1m1 0h2m3 0h10m3 0h1m1 0h1m1 0h1m1 0h1m1 0h1m2 0h1m1 0h1m1 0h3m1 0h1m3 0h2m3 0h2m3 0h1m1 0h1m2 0h1m1 0h4m1 0h1m2 0h3m1 0h1m3 0h1m2 0h1M8 36.5h5m2 0h3m3 0h1m4 0h1m2 0h2m1 0h5m1 0h2m1 0h2m1 0h1m4 0h3m1 0h1m1 0h1m1 0h1m2 0h5m2 0h1m1 0h1m2 0h4m3 0h1m1 0h4m1 0h1m1 0h5m1 0h1M5 37.5h2m2 0h1m1 0h1m4 0h1m1 0h1m1 0h1m2 0h2m1 0h2m1 0h1m2 0h1m2 0h1m3 0h1m1 0h2m1 0h1m1 0h3m1 0h1m1 0h4m1 0h1m2 0h7m3 0h1m2 0h1m1 0h3m1 0h1m2 0h1m1 0h2m1 0h1m2 0h1m1 0h1m1 0h3M6 38.5h1m1 0h3m1 0h2m1 0h4m3 0h2m1 0h4m2 0h5m1 0h1m1 0h1m5 0h1m3 0h2m1 0h1m1 0h1m1 0h1m2 0h4m3 0h3m2 0h1m1 0h2m2 0h1m1 0h3m5 0h3m1 0h1m2 0h1m1 0h1M4 39.5h4m1 0h1m1 0h1m1 0h7m1 0h1m1 0h3m1 0h1m1 0h1m1 0h2m1 0h1m2 0h1m4 0h1m2 0h1m1 0h4m3 0h1m3 0h3m1 0h1m2 0h1m2 0h1m1 0h2m1 0h4m6 0h1m1 0h2m3 0h1m3 0h2M5 40.5h2m3 0h2m1 0h6m1 0h2m4 0h1m2 0h2m1 0h2m1 0h3m2 0h1m2 0h1m1 0h1m5 0h1m3 0h3m1 0h1m1 0h3m1 0h1m1 0h6m1 0h1m2 0h1m1 0h5m1 0h2m1 0h2m1 0h2m1 0h1m1 0h1M4 41.5h3m4 0h2m2 0h1m1 0h2m1 0h1m1 0h3m2 0h1m3 0h2m2 0h1m1 0h4m3 0h1m1 0h2m2 0h1m3 0h1m1 0h1m1 0h1m2 0h1m1 0h7m1 0h3m1 0h1m1 0h2m1 0h1m1 0h1m1 0h1m2 0h1m1 0h3m2 0h3M4 42.5h2m1 0h4m5 0h1m2 0h1m1 0h1m3 0h2m3 0h3m4 0h6m4 0h1m1 0h1m1 0h5m4 0h1m1 0h5m3 0h1m2 0h5m1 0h4m1 0h2m2 0h1m1 0h5M7 43.5h3m1 0h3m1 0h2m1 0h1m1 0h6m3 0h1m1 0h1m1 0h1m2 0h1m1 0h2m1 0h2m1 0h3m1 0h1m3 0h1m1 0h1m2 0h1m3 0h2m3 0h2m1 0h1m2 0h2m2 0h2m2 0h2m1 0h1m2 0h3m1 0h1m1 0h2M4 44.5h2m1 0h2m1 0h1m1 0h2m2 0h1m1 0h1m1 0h1m5 0h5m1 0h4m3 0h4m1 0h3m1 0h8m1 0h2m1 0h1m1 0h2m1 0h1m1 0h2m1 0h2m3 0h1m6 0h2m2 0h5m2 0h1m1 0h2M5 45.5h2m2 0h1m2 0h2m3 0h2m2 0h2m1 0h1m1 0h1m2 0h1m2 0h1m2 0h1m4 0h1m1 0h2m1 0h1m2 0h1m4 0h2m1 0h1m2 0h1m2 0h2m3 0h2m2 0h1m1 0h2m2 0h1m1 0h2m3 0h3m4 0h1m1 0h1m2 0h1M4 46.5h1m5 0h2m1 0h2m3 0h1m1 0h6m2 0h1m1 0h1m1 0h6m1 0h4m3 0h2m6 0h1m1 0h1m1 0h2m2 0h4m1 0h2m1 0h1m1 0h1m7 0h2m2 0h4m1 0h1m2 0h4M4 47.5h1m1 0h2m4 0h1m1 0h1m4 0h2m2 0h1m6 0h3m1 0h6m2 0h1m3 0h2m5 0h1m1 0h5m1 0h1m2 0h1m2 0h2m2 0h1m1 0h1m1 0h1m4 0h1m1 0h1m4 0h1m2 0h7M4 48.5h1m1 0h3m1 0h5m1 0h2m1 0h1m3 0h1m1 0h2m1 0h1m1 0h1m2 0h1m2 0h2m3 0h2m2 0h3m2 0h3m1 0h4m1 0h1m1 0h1m3 0h1m1 0h1m1 0h2m1 0h1m2 0h2m1 0h1m2 0h1m3 0h1m2 0h3m2 0h1M5 49.5h2m4 0h5m6 0h1m2 0h2m1 0h1m2 0h1m1 0h1m4 0h1m2 0h1m8 0h1m2 0h1m2 0h1m2 0h1m2 0h1m1 0h1m1 0h3m1 0h1m1 0h2m1 0h1m4 0h2m1 0h3m1 0h2m1 0h2m1 0h1m2 0h1M4 50.5h1m1 0h1m1 0h1m1 0h3m1 0h2m4 0h4m1 0h1m2 0h2m2 0h1m3 0h1m1 0h3m1 0h3m2 0h1m1 0h2m1 0h1m1 0h2m1 0h1m1 0h2m2 0h1m1 0h1m3 0h3m1 0h2m2 0h1m3 0h1m3 0h1m2 0h2m3 0h2m1 0h1M4 51.5h1m1 0h4m1 0h1m3 0h1m4 0h1m10 0h1m7 0h1m2 0h1m4 0h1m1 0h3m1 0h1m1 0h2m2 0h1m1 0h1m1 0h1m1 0h1m1 0h1m3 0h2m6 0h3m1 0h4m4 0h1m2 0h1M4 52.5h2m1 0h1m1 0h2m5 0h2m2 0h2m2 0h3m1 0h1m2 0h1m1 0h2m2 0h2m1 0h1m3 0h1m1 0h1m3 0h2m1 0h1m1 0h1m3 0h3m2 0h2m4 0h3m2 0h1m1 0h1m4 0h1m1 0h1m1 0h3m1 0h2m4 0h1M4 53.5h2m2 0h2m2 0h1m3 0h2m4 0h1m4 0h3m4 0h1m1 0h1m4 0h2m5 0h1m1 0h2m2 0h1m2 0h2m1 0h1m1 0h1m2 0h6m6 0h1m4 0h1m3 0h3m1 0h7M4 54.5h4m1 0h2m4 0h2m1 0h1m2 0h1m2 0h3m1 0h2m1 0h3m2 0h1m1 0h1m1 0h1m2 0h1m1 0h1m1 0h1m1 0h2m1 0h1m1 0h3m2 0h1m3 0h1m2 0h3m1 0h7m3 0h3m2 0h1m2 0h1m1 0h3m1 0h1m1 0h1M9 55.5h1m3 0h1m3 0h1m2 0h1m1 0h2m2 0h2m1 0h4m1 0h2m1 0h2m2 0h5m2 0h3m1 0h1m1 0h1m1 0h1m3 0h1m2 0h2m2 0h2m2 0h4m1 0h1m2 0h1m1 0h1m2 0h2m1 0h1m1 0h3m2 0h3M4 56.5h3m1 0h1m1 0h1m2 0h1m1 0h1m2 0h1m1 0h4m1 0h3m2 0h3m2 0h2m2 0h1m1 0h1m3 0h2m1 0h2m1 0h1m1 0h6m1 0h2m4 0h2m1 0h1m1 0h1m1 0h3m4 0h4m1 0h1m1 0h3m1 0h2M4 57.5h1m1 0h4m3 0h1m2 0h1m1 0h1m2 0h1m1 0h1m3 0h1m1 0h1m1 0h1m5 0h1m1 0h1m3 0h1m2 0h1m1 0h1m1 0h1m3 0h1m2 0h3m2 0h1m1 0h2m5 0h1m1 0h2m3 0h1m1 0h1m1 0h3m2 0h2m1 0h4m1 0h1M5 58.5h6m2 0h1m1 0h1m2 0h5m2 0h1m1 0h2m2 0h1m3 0h1m1 0h4m1 0h1m1 0h4m1 0h1m1 0h1m1 0h3m3 0h4m3 0h1m3 0h1m2 0h2m11 0h1m2 0h2m3 0h1M4 59.5h3m1 0h1m3 0h3m1 0h1m5 0h2m1 0h3m3 0h5m2 0h1m1 0h1m1 0h1m1 0h1m1 0h1m2 0h3m1 0h2m1 0h3m2 0h2m4 0h3m4 0h4m1 0h1m3 0h1m1 0h3m1 0h1m2 0h2M4 60.5h1m3 0h5m1 0h1m2 0h1m2 0h1m1 0h1m1 0h1m1 0h1m1 0h2m1 0h8m1 0h2m4 0h1m2 0h1m2 0h1m1 0h1m4 0h7m1 0h1m2 0h1m1 0h6m1 0h1m4 0h3m1 0h5m1 0h3M4 61.5h1m1 0h1m1 0h1m3 0h2m7 0h1m1 0h1m1 0h1m3 0h2m1 0h1m3 0h1m1 0h1m3 0h4m1 0h2m1 0h2m2 0h5m1 0h1m3 0h1m1 0h1m2 0h1m2 0h2m1 0h7m1 0h1m1 0h1m2 0h1m3 0h1m1 0h3M4 62.5h2m2 0h1m1 0h1m1 0h3m1 0h6m1 0h1m1 0h1m1 0h1m3 0h2m1 0h1m1 0h1m6 0h1m1 0h1m1 0h1m2 0h1m3 0h3m2 0h2m1 0h1m1 0h2m3 0h1m1 0h1m1 0h4m1 0h1m1 0h1m2 0h1m1 0h1m1 0h2m1 0h1m1 0h1m3 0h1M5 63.5h1m1 0h2m3 0h3m4 0h1m1 0h1m1 0h2m3 0h2m1 0h2m3 0h2m2 0h1m1 0h2m5 0h1m1 0h5m4 0h1m3 0h3m1 0h5m2 0h2m3 0h1m5 0h1m1 0h1m3 0h2m1 0h1M5 64.5h1m2 0h6m5 0h3m1 0h3m1 0h1m1 0h2m1 0h5m3 0h1m4 0h3m3 0h1m5 0h8m5 0h2m1 0h7m1 0h2m3 0h1m1 0h7M4 65.5h3m1 0h1m5 0h2m1 0h2m2 0h1m1 0h1m6 0h2m5 0h1m2 0h2m1 0h1m2 0h1m1 0h1m1 0h1m2 0h1m1 0h1m2 0h1m1 0h1m1 0h1m1 0h1m2 0h3m2 0h1m2 0h1m1 0h1m2 0h1m2 0h1m1 0h2m1 0h2m1 0h1m2 0h1M10 66.5h1m1 0h1m1 0h2m1 0h1m3 0h2m1 0h2m1 0h1m2 0h8m1 0h4m1 0h1m1 0h4m3 0h4m1 0h1m4 0h2m3 0h5m2 0h1m1 0h3m2 0h1m8 0h1m2 0h3M4 67.5h2m1 0h3m1 0h1m2 0h3m1 0h1m1 0h1m1 0h1m2 0h3m2 0h2m3 0h3m2 0h2m9 0h1m1 0h1m4 0h1m5 0h1m1 0h2m1 0h1m1 0h1m1 0h2m1 0h4m1 0h2m3 0h2m1 0h1m1 0h1M8 68.5h4m1 0h2m1 0h1m1 0h2m2 0h3m1 0h4m1 0h1m1 0h1m4 0h2m4 0h5m2 0h7m5 0h2m3 0h2m2 0h3m2 0h1m1 0h2m1 0h4m1 0h2m2 0h2m1 0h3M4 69.5h1m1 0h2m1 0h1m5 0h1m1 0h5m1 0h1m1 0h2m1 0h1m2 0h1m4 0h1m1 0h1m3 0h4m1 0h1m1 0h1m1 0h1m3 0h2m1 0h4m2 0h3m2 0h1m11 0h1m4 0h2m2 0h2M8 70.5h3m3 0h1m1 0h1m3 0h1m1 0h1m7 0h1m3 0h1m4 0h2m1 0h2m1 0h1m3 0h1m2 0h1m4 0h3m2 0h1m2 0h1m1 0h2m1 0h2m3 0h1m1 0h1m4 0h1m1 0h2m5 0h2m2 0h1M5 71.5h2m2 0h1m1 0h2m2 0h3m1 0h3m2 0h1m4 0h1m2 0h4m1 0h3m1 0h1m3 0h4m2 0h2m1 0h2m1 0h4m1 0h1m5 0h2m2 0h3m2 0h2m2 0h1m1 0h2m3 0h3m1 0h1m2 0h1M10 72.5h2m1 0h1m1 0h2m3 0h1m1 0h3m1 0h1m1 0h2m1 0h1m1 0h4m2 0h2m2 0h1m3 0h2m1 0h1m5 0h3m1 0h2m1 0h1m2 0h7m1 0h3m1 0h2m2 0h3m1 0h2m1 0h1m2 0h1m2 0h2M4 73.5h1m1 0h2m3 0h1m2 0h2m1 0h2m1 0h2m2 0h1m3 0h2m1 0h2m2 0h1m1 0h1m2 0h2m1 0h2m5 0h3m1 0h2m1 0h1m2 0h1m1 0h1m1 0h4m2 0h2m2 0h1m1 0h1m1 0h1m1 0h2m2 0h1m2 0h2m1 0h2m1 0h2m1 0h1M4 74.5h2m1 0h2m1 0h1m1 0h4m4 0h2m1 0h3m2 0h2m1 0h2m1 0h1m2 0h1m1 0h1m1 0h4m1 0h1m1 0h2m2 0h6m1 0h2m1 0h3m1 0h1m3 0h1m1 0h1m2 0h1m6 0h1m3 0h5m3 0h1M4 75.5h1m1 0h3m5 0h2m1 0h4m5 0h1m1 0h1m2 0h1m1 0h1m1 0h1m1 0h2m2 0h2m2 0h2m2 0h1m2 0h2m2 0h4m1 0h1m3 0h1m1 0h1m1 0h2m1 0h1m1 0h1m1 0h4m1 0h1m2 0h2m1 0h2m2 0h2m1 0h2M7 76.5h1m1 0h7m12 0h2m1 0h3m1 0h1m2 0h1m3 0h1m3 0h1m1 0h1m2 0h1m1 0h1m1 0h3m2 0h3m1 0h1m1 0h1m3 0h2m2 0h1m1 0h2m2 0h1m9 0h1m3 0h3M4 77.5h3m5 0h4m1 0h1m1 0h4m2 0h1m1 0h2m3 0h1m1 0h1m1 0h2m1 0h2m1 0h1m3 0h1m3 0h3m1 0h1m5 0h1m1 0h1m3 0h3m4 0h2m2 0h1m2 0h1m2 0h4m3 0h2m1 0h1m1 0h2M4 78.5h2m3 0h11m2 0h2m1 0h1m4 0h2m1 0h3m1 0h5m1 0h1m2 0h2m1 0h1m1 0h1m1 0h1m1 0h1m2 0h1m2 0h3m4 0h1m1 0h1m1 0h1m1 0h2m1 0h4m1 0h2m1 0h1m1 0h1m1 0h2m1 0h1m1 0h1M4 79.5h2m3 0h1m4 0h2m2 0h4m1 0h1m3 0h3m1 0h2m5 0h2m1 0h2m2 0h1m3 0h2m1 0h1m8 0h6m2 0h2m1 0h2m1 0h2m3 0h3m1 0h2m1 0h2m2 0h2m1 0h1M4 80.5h3m1 0h1m1 0h1m2 0h3m5 0h1m3 0h1m5 0h1m1 0h2m4 0h4m1 0h2m2 0h1m1 0h2m1 0h1m1 0h2m2 0h2m2 0h1m2 0h5m3 0h1m1 0h1m1 0h3m1 0h1m1 0h1m1 0h1m3 0h1m1 0h5M4 81.5h1m2 0h2m3 0h1m3 0h2m1 0h2m1 0h4m2 0h1m2 0h1m8 0h1m2 0h2m2 0h2m1 0h2m1 0h1m6 0h1m2 0h3m1 0h1m3 0h1m2 0h1m1 0h2m1 0h1m1 0h2m1 0h1m2 0h1m2 0h2m1 0h4M5 82.5h3m1 0h3m1 0h2m1 0h1m2 0h1m3 0h6m2 0h3m3 0h1m3 0h1m1 0h2m2 0h1m3 0h1m1 0h1m1 0h3m1 0h1m1 0h1m1 0h7m2 0h3m2 0h2m1 0h3m2 0h1m1 0h1m4 0h1m1 0h2M5 83.5h2m1 0h2m1 0h2m1 0h7m1 0h1m1 0h3m4 0h2m1 0h2m5 0h1m4 0h1m1 0h2m2 0h1m1 0h2m3 0h2m1 0h1m2 0h1m1 0h1m2 0h3m1 0h1m2 0h2m2 0h1m1 0h1m3 0h1m3 0h1m3 0h1M4 84.5h2m1 0h2m1 0h1m1 0h1m3 0h2m1 0h2m2 0h1m1 0h4m2 0h3m1 0h4m1 0h2m2 0h3m2 0h3m1 0h4m1 0h2m2 0h1m1 0h1m2 0h3m1 0h1m2 0h8m2 0h1m1 0h2m1 0h3m1 0h2m1 0h1M7 85.5h3m1 0h1m1 0h1m1 0h1m1 0h5m1 0h1m2 0h2m1 0h1m1 0h7m3 0h1m2 0h2m4 0h2m2 0h4m4 0h1m3 0h3m5 0h2m1 0h1m2 0h1m2 0h4m2 0h2m1 0h1m1 0h1M8 86.5h1m1 0h3m1 0h1m4 0h1m1 0h1m2 0h1m1 0h2m2 0h2m2 0h5m1 0h1m1 0h2m2 0h2m1 0h2m2 0h1m2 0h4m1 0h4m1 0h2m5 0h2m2 0h1m1 0h2m2 0h1m1 0h2m1 0h1m1 0h5M4 87.5h2m1 0h3m4 0h4m2 0h1m3 0h2m6 0h1m1 0h4m1 0h1m1 0h1m3 0h4m1 0h2m4 0h2m1 0h1m1 0h2m5 0h4m1 0h1m1 0h3m1 0h5m1 0h1m2 0h1m2 0h1M5 88.5h2m3 0h1m3 0h2m1 0h1m4 0h2m1 0h1m3 0h8m2 0h1m4 0h1m1 0h3m1 0h6m1 0h1m2 0h6m1 0h1m1 0h6m4 0h2m2 0h1m3 0h6m2 0h2M12 89.5h1m1 0h2m1 0h2m1 0h2m2 0h3m1 0h5m3 0h1m2 0h3m2 0h1m4 0h1m2 0h2m2 0h3m1 0h1m3 0h2m2 0h2m8 0h2m2 0h1m4 0h2m3 0h1m1 0h3M4 90.5h7m2 0h1m4 0h2m1 0h2m1 0h1m1 0h1m1 0h2m2 0h1m1 0h1m1 0h1m1 0h2m3 0h1m3 0h1m1 0h1m1 0h2m1 0h1m3 0h3m1 0h1m1 0h4m3 0h1m1 0h1m1 0h1m1 0h2m4 0h2m1 0h3m1 0h1m1 0h1m1 0h1m1 0h1M4 91.5h1m5 0h1m1 0h1m5 0h2m2 0h5m5 0h1m3 0h1m1 0h1m1 0h1m1 0h1m3 0h1m3 0h1m5 0h5m3 0h1m4 0h2m2 0h1m1 0h1m1 0h1m1 0h1m2 0h3m1 0h3m3 0h1m1 0h1m1 0h1M4 92.5h1m1 0h3m1 0h1m3 0h8m1 0h1m2 0h1m2 0h8m4 0h6m2 0h2m2 0h12m2 0h2m1 0h1m4 0h2m1 0h2m1 0h1m1 0h1m3 0h6m1 0h1m1 0h1M4 93.5h1m1 0h3m1 0h1m2 0h4m2 0h1m3 0h1m2 0h1m1 0h1m1 0h3m3 0h2m1 0h2m2 0h3m2 0h2m3 0h1m1 0h1m2 0h2m3 0h3m2 0h1m3 0h2m3 0h4m4 0h1m1 0h4m1 0h1M4 94.5h1m1 0h3m1 0h1m1 0h3m1 0h1m1 0h2m2 0h1m1 0h4m1 0h1m2 0h1m3 0h1m1 0h2m3 0h3m2 0h1m1 0h6m5 0h3m2 0h2m1 0h2m2 0h1m2 0h1m1 0h3m1 0h1m1 0h2m2 0h1m2 0h2m1 0h3M4 95.5h1m5 0h1m1 0h2m3 0h2m2 0h2m1 0h1m3 0h2m5 0h1m2 0h1m3 0h1m2 0h2m1 0h1m1 0h5m1 0h4m3 0h1m3 0h1m1 0h1m1 0h1m1 0h2m4 0h1m1 0h3m2 0h5m1 0h2M4 96.5h7m1 0h3m1 0h2m1 0h5m2 0h6m4 0h1m6 0h2m1 0h6m2 0h1m1 0h1m1 0h4m2 0h7m1 0h1m3 0h1m3 0h3m1 0h3m1 0h1m2 0h1m2 0h1m1 0h1"/></svg>
